<svg id="Layer_1" data-name="Layer 1" xmlns="http://www.w3.org/2000/svg" xmlns:xlink="http://www.w3.org/1999/xlink" viewBox="0 0 512 512"><defs><linearGradient id="New_Gradient_Swatch_2" x1="256" y1="512" x2="256" gradientUnits="userSpaceOnUse"><stop offset="0" stop-color="#961b1e"/><stop offset="1" stop-color="#ec1c24"/></linearGradient></defs><title>home</title><rect width="512" height="512" rx="99.7" ry="99.7" fill="url(#New_Gradient_Swatch_2)"/><path d="M114.52,512H228.85c-3.25-22.1-7.08-48-9.14-62.12l27.68-4.07c2.2,14.95,6.37,43.29,9.74,66.19H381.92a41.6,41.6,0,0,0,5.1-22.57c-.07-1.17-.2-2.35-.37-3.55L367,352.14l17.76-2.61c14.36-2.13,24.88-10.53,28.13-22.51a28.21,28.21,0,0,0,.95-9.23c-.55-8.92-5.34-17.61-13.71-24.36L219.68,147.78a40.55,40.55,0,0,0-59.29,8.73h0L29.59,348c-8.15,11.91-9.1,25.3-2.54,35.81s19.07,15.56,33.41,13.45l17.77-2.63c3.72,25.23,12.85,87.3,17.25,117.16,1.4.06,2.79.21,4.22.21Z" fill="#70090a"/><polygon points="192.15 422.63 199.64 512 274.99 512 266.96 416.36 192.15 422.63" fill="none"/><path d="M192.15,422.64,267,416.36,275,512h69.49a18.7,18.7,0,0,0,14-19.55L345.22,334.26l41.36-3.46c10.27-.88,12.48-7.25,4.9-14.18L220.49,160a17,17,0,0,0-25.23,2.13L52.77,345.05c-6.31,8.08-3.07,14,7.19,13.14l41.36-3.47L114.52,512h85.12Z" fill="#fff"/></svg>